<?xml version="1.0" standalone="no"?>
<!DOCTYPE svg PUBLIC "-//W3C//DTD SVG 20010904//EN"
 "http://www.w3.org/TR/2001/REC-SVG-20010904/DTD/svg10.dtd">
<svg version="1.0" xmlns="http://www.w3.org/2000/svg"
 width="512.000000pt" height="512.000000pt" viewBox="0 0 512.000000 512.000000"
 preserveAspectRatio="xMidYMid meet">

<g transform="translate(0.000000,512.000000) scale(0.100000,-0.100000)"
fill="#000000" stroke="none">
<path d="M2610 4807 c-53 -15 -1113 -1072 -1146 -1142 -63 -133 -4 -286 135
-348 63 -28 162 -20 227 18 l47 27 134 -134 134 -134 -937 -884 c-516 -487
-966 -913 -1001 -946 -87 -85 -118 -152 -118 -259 0 -136 63 -238 183 -297 60
-30 75 -33 152 -33 156 1 76 -73 1142 1056 l943 999 93 -93 c51 -50 111 -113
133 -139 l40 -47 -28 -53 c-36 -69 -39 -171 -6 -233 67 -128 224 -182 349
-120 64 32 1111 1078 1140 1140 27 57 25 167 -3 220 -50 94 -126 140 -233 140
-64 0 -83 -4 -127 -29 l-52 -29 -456 449 c-250 247 -454 451 -453 454 2 3 16
31 32 62 67 136 12 285 -129 349 -45 21 -138 24 -195 6z m153 -157 c38 -30 52
-80 34 -122 -21 -47 -1043 -1065 -1079 -1073 -40 -10 -80 7 -106 46 -49 71
-67 49 520 636 507 506 535 533 569 533 21 0 47 -8 62 -20z m834 -1370 c-56
-58 -239 -244 -407 -413 l-305 -308 -452 458 -452 458 407 408 407 407 452
-452 453 -453 -103 -105z m434 104 c41 -21 64 -75 50 -117 -13 -39 -1042
-1071 -1083 -1086 -36 -14 -94 4 -114 34 -18 28 -21 84 -6 111 6 11 248 256
539 547 570 568 545 547 614 511z m-1706 -483 l68 -70 -44 -48 c-24 -26 -448
-474 -941 -995 -632 -666 -907 -949 -929 -957 -88 -31 -181 7 -225 91 -17 33
-18 118 -2 154 13 27 1980 1894 1996 1894 4 0 39 -31 77 -69z"/>
<path d="M2731 1390 c-57 -14 -114 -60 -143 -119 -25 -48 -28 -66 -28 -148 l0
-93 -78 0 c-100 0 -171 -32 -217 -98 l-30 -44 -3 -219 -3 -219 -58 0 c-75 0
-105 -21 -105 -74 0 -24 7 -44 22 -59 l23 -22 1407 -3 c774 -2 1426 0 1450 3
24 4 52 15 63 26 27 27 24 75 -6 104 -20 21 -34 25 -85 25 l-60 0 0 193 c0
105 -5 209 -11 230 -13 49 -73 115 -124 138 -27 13 -64 19 -117 19 l-78 0 0
70 c0 112 -15 163 -67 220 -75 84 -32 80 -932 79 -432 -1 -801 -5 -820 -9z
m1627 -160 c19 -18 22 -31 22 -105 l0 -85 -830 0 -830 0 0 85 c0 139 -94 125
828 125 779 0 788 0 810 -20z m339 -373 c16 -15 18 -41 21 -212 l3 -195 -1175
0 -1176 0 0 180 c0 188 6 220 44 238 14 7 382 10 1143 9 1062 -2 1123 -3 1140
-20z"/>
</g>
</svg>
